<!-- Generated by IcoMoon.io -->
<svg version="1.1" xmlns="http://www.w3.org/2000/svg" width="20" height="20" viewBox="0 0 20 20">
<title>telegram</title>
<path fill="white" d="M13.27 14.587l1.641-7.734c0.145-0.681-0.246-0.949-0.692-0.781l-9.643 3.717c-0.658 0.257-0.647 0.625-0.112 0.792l2.467 0.77 5.725-3.605c0.268-0.179 0.513-0.078 0.313 0.1l-4.632 4.185-0.179 2.545c0.257 0 0.368-0.112 0.502-0.246l1.205-1.161 2.5 1.842c0.458 0.257 0.781 0.123 0.904-0.424zM20 10c0 5.525-4.475 10-10 10s-10-4.475-10-10 4.475-10 10-10 10 4.475 10 10z"></path>
</svg>
